<svg width="20" height="20" viewBox="0 0 20 20" fill="none" xmlns="http://www.w3.org/2000/svg">
<path d="M4.16675 8.33366H5.83341C7.50008 8.33366 8.33341 7.50033 8.33341 5.83366V4.16699C8.33341 2.50033 7.50008 1.66699 5.83341 1.66699H4.16675C2.50008 1.66699 1.66675 2.50033 1.66675 4.16699V5.83366C1.66675 7.50033 2.50008 8.33366 4.16675 8.33366Z" stroke="#6B203A" stroke-width="1.5" stroke-miterlimit="10" stroke-linecap="round" stroke-linejoin="round"/>
<path d="M14.1667 8.33366H15.8334C17.5001 8.33366 18.3334 7.50033 18.3334 5.83366V4.16699C18.3334 2.50033 17.5001 1.66699 15.8334 1.66699H14.1667C12.5001 1.66699 11.6667 2.50033 11.6667 4.16699V5.83366C11.6667 7.50033 12.5001 8.33366 14.1667 8.33366Z" stroke="#6B203A" stroke-width="1.5" stroke-miterlimit="10" stroke-linecap="round" stroke-linejoin="round"/>
<path d="M14.1667 18.3337H15.8334C17.5001 18.3337 18.3334 17.5003 18.3334 15.8337V14.167C18.3334 12.5003 17.5001 11.667 15.8334 11.667H14.1667C12.5001 11.667 11.6667 12.5003 11.6667 14.167V15.8337C11.6667 17.5003 12.5001 18.3337 14.1667 18.3337Z" stroke="#6B203A" stroke-width="1.5" stroke-miterlimit="10" stroke-linecap="round" stroke-linejoin="round"/>
<path d="M4.16675 18.3337H5.83341C7.50008 18.3337 8.33341 17.5003 8.33341 15.8337V14.167C8.33341 12.5003 7.50008 11.667 5.83341 11.667H4.16675C2.50008 11.667 1.66675 12.5003 1.66675 14.167V15.8337C1.66675 17.5003 2.50008 18.3337 4.16675 18.3337Z" stroke="#6B203A" stroke-width="1.5" stroke-miterlimit="10" stroke-linecap="round" stroke-linejoin="round"/>
</svg>
